<?xml version="1.0" encoding="iso-8859-1"?>
<!-- Generator: Adobe Illustrator 19.0.0, SVG Export Plug-In . SVG Version: 6.00 Build 0)  -->
<svg version="1.1" id="Layer_1" xmlns="http://www.w3.org/2000/svg" xmlns:xlink="http://www.w3.org/1999/xlink" x="0px" y="0px"
	 viewBox="0 0 496.2 496.2" style="enable-background:new 0 0 496.2 496.2;" xml:space="preserve">
<path style="fill:#4ABC96;" d="M496.2,248.1C496.2,111.1,385.1,0,248.1,0S0,111.1,0,248.1s111.1,248.1,248.1,248.1
	S496.2,385.1,496.2,248.1z"/>
<g>
	<path style="fill:#68DDB0;" d="M227.7,385.1c-1.2,3.3-3.4,5.3-6.8,6.2c-4.8,1.2-9,0.8-11.8-1.1c-2.4-1.6-4-4.3-4.6-8.1
		c-0.8-4.9,2.1-7.7,5-8.6c2.9-1,7-0.4,9.4,2.9c0.6,0.8,1.8,1.1,2.6,0.6s1-1.6,0.4-2.5c-3.1-4.3-8.7-6.1-13.8-4.4
		c-5.4,1.8-8.2,6.6-7.3,12.4c0.8,4.9,2.9,8.5,6.3,10.7c3.8,2.5,9,3.1,14.9,1.6c4.6-1.1,7.7-3.9,9.2-8.3c2.8-8-0.2-21-5.8-35.3
		c-8.7-21.9-23.6-47.2-33.7-63.2c-1.1,0.5-2.2,1-3.3,1.5C204.8,315.4,234.3,366.3,227.7,385.1z"/>
	<path style="fill:#68DDB0;" d="M278.3,380.3c1.3,3,3.7,4.8,7.1,5.3c4.9,0.7,9-0.1,12-2.4c1.3-1,2.4-2.3,3.1-3.8s1.2-3.2,1.4-5.2
		c0.4-4.7-2.3-8.3-6.8-9.4c-4.3-1-8.8,0.8-11.1,4.6c-0.6,0.9-0.3,2,0.6,2.4s2,0.1,2.6-0.8c1.6-2.5,4.5-3.2,6.7-2.7
		c2.3,0.5,4.6,2.3,4.2,5.9c-0.2,2.8-1.2,4.9-2.9,6.2c-2,1.6-5.2,2.1-8.9,1.5c-2.2-0.3-3.6-1.4-4.5-3.4c-5.8-13.3,17.2-58.7,34-88.1
		c-1.1-0.5-2.2-1-3.3-1.5C297.3,315.6,271.4,364.7,278.3,380.3z"/>
	<path style="fill:#68DDB0;" d="M244.4,430.1c-2.2,2.2-4.8,3.1-8,3c-5.8-0.3-10.3-2.1-12.6-5.1c-2-2.6-2.4-6.2-1.4-10.6
		c1.4-5.8,5.9-8,9.7-8.1c3.7-0.1,8,1.8,9.2,6.5c0.2,1,1.2,1.6,2.2,1.3c1-0.3,1.6-1.3,1.3-2.3c-1.4-5.7-6.6-9.3-12.8-9.2
		c-6.5,0.2-11.7,4.5-13.2,11c-1.3,5.5-0.6,10.1,2,13.6c3,4,8.3,6.2,15.3,6.6c4.2,0.2,7.9-1.2,10.8-4.1c7.4-7.3,9.7-24,10.1-44.4
		c0.2-9.2-0.1-19.2-0.4-29.4c-0.8-26-1.9-53.4-2.6-71c-1.2,0-2.4,0-3.7,0.1c0.7,17.6,1.7,45,2.6,71.1
		C253.9,389.8,254,420.6,244.4,430.1z"/>
</g>
<path style="fill:#EFEFEF;" d="M418.8,291.9H70.2c-3.7,0-8.3-19.5-8.3-65.1s4.6-65.1,8.3-65.1h348.6c3.7,0,8.3,19,8.3,65.1
	S422.5,291.9,418.8,291.9z"/>
<rect x="79" y="263.2" style="fill:#C2C4C4;" width="331" height="28.7"/>
<polygon style="fill:#EFEFEF;" points="83.8,268.1 80.1,291.9 408.9,291.9 405.2,268.1 "/>
<path style="fill:#F2F2F2;" d="M418.8,161.7H70.2c-3.5,0-7.8,17.5-8.2,57.9h365.1C426.6,178.7,422.3,161.7,418.8,161.7z"/>
<path style="fill:#424242;" d="M427.1,219.6H62c0,2.3,0,4.7,0,7.2c0,7.1,0.1,13.6,0.3,19.5h364.6c0.2-5.9,0.3-12.4,0.3-19.5
	C427.1,224.3,427.1,221.9,427.1,219.6z"/>
<g>
	<path style="fill:#C7E3E7;" d="M195.4,228.9c-0.9-1.5-1.4-3-1.4-3l0,0c0,0-0.4,1.5-1.4,3c-1.2,2.3-3,3.6-3,6.5
		c0,2.5,1.9,4.6,4.4,4.6l0,0c2.5,0,4.4-2.1,4.4-4.6C198.4,232.5,196.5,231.3,195.4,228.9z"/>
	<path style="fill:#C7E3E7;" d="M224.1,225v1.5l2.3-1.3v1.2l-2.3,1.4v1.4l2.3-1.3v2.7l1.2-0.7v-2.7l1.1-0.6v2.7l1.5-0.9l0.5,1
		l-1.6,0.9l2.3,1.3l-1,0.6l-2.4-1.4l-1.2,0.8l2.4,1.3l-2.4,1.4l1.2,0.7l2.5-1.3l1,0.6l-2.3,1.4l1.6,0.9l-0.5,0.9l-1.6-0.9v2.6
		l-1.1-0.6V236l-1.2-0.8v2.6l-2.3-1.3v1.4l2.3,1.3v1.2l-2.3-1.4v1.8h-1.2V239l-2.3,1.4v-1.3l2.3-1.3v-1.4l-2.4,1.3v-2.6l-1.2,0.8
		v2.6l-1,0.6v-2.6l-1.6,0.9l-0.5-0.9l1.6-0.9l-2.3-1.4l0.9-0.6l2.5,1.3l1.2-0.7l-2.4-1.4l2.4-1.3l-1.2-0.8l-2.5,1.4l-1-0.6l2.3-1.3
		l-1.5-0.9l0.5-1l1.6,0.9v-2.7l1,0.6v2.7l1.2,0.7v-2.7l2.4,1.3v-1.4l-2.3-1.4v-1.2l2.3,1.3v-1.5h1.2V225z M220,232.8l1.3,0.7
		l1.3-0.7l-1.3-0.7L220,232.8z M221.6,230v1.4l1.3,0.7v-1.5L221.6,230z M221.6,235.7l1.3-0.6v-1.5l-1.3,0.7V235.7z M224.1,230.5v1.5
		l1.3-0.8v-1.3L224.1,230.5z M224.1,235.2l1.3,0.6v-1.3l-1.3-0.8V235.2z M224.7,232.8l1.2,0.7l1.3-0.7l-1.3-0.7L224.7,232.8z"/>
	<circle style="fill:#C7E3E7;" cx="257.5" cy="232.9" r="1.7"/>
	<path style="fill:#C7E3E7;" d="M255.9,231.3c-3.2-1.9-4.9,0-4.9,0c-1.4,1.4-1.1,3-0.7,3.6c1.7,2.1,3.9-0.4,3.9-0.4
		c0.4-0.3,0.9-0.5,1.2-0.5C255,233.1,255.1,232,255.9,231.3z"/>
	<path style="fill:#C7E3E7;" d="M259.3,240.4c2.2-1.6-0.2-3.9-0.2-3.9c-0.4-0.6-0.5-1.4-0.5-1.5c-0.2,0.1-0.4,0.2-0.6,0.2
		c-0.8,0.2-1.5-0.1-2-0.6c-2.1,3.1-0.3,4.9-0.3,4.9C257.1,241,258.8,240.8,259.3,240.4z"/>
	<path style="fill:#C7E3E7;" d="M259.2,234.5c3.2,1.9,4.9,0,4.9,0c1.4-1.4,1.1-3.1,0.7-3.6c-1.7-2.1-3.9,0.4-3.9,0.4
		c-0.4,0.3-0.9,0.5-1.2,0.5C260.1,232.7,259.9,233.8,259.2,234.5z"/>
	<path style="fill:#C7E3E7;" d="M255.8,225.4c-2.2,1.6,0.2,3.9,0.2,3.9c0.4,0.6,0.5,1.4,0.5,1.5c0.2-0.1,0.4-0.2,0.6-0.2
		c0.8-0.2,1.5,0.1,2,0.6c2.1-3.1,0.3-4.9,0.3-4.9C258,224.8,256.3,225,255.8,225.4z"/>
	<path style="fill:#C7E3E7;" d="M297.9,230.3c-0.1,0-0.3,0-0.4-0.1c0,0-2.5-1.7-7.5-0.4c-5.2,1.3-8-0.3-8.1-0.4
		c-0.2-0.1-0.3-0.5-0.2-0.7s0.5-0.3,0.7-0.2c0,0,2.6,1.4,7.3,0.3c5.5-1.4,8.2,0.5,8.3,0.6c0.2,0.2,0.3,0.5,0.1,0.7
		C298.2,230.2,298,230.3,297.9,230.3z"/>
	<path style="fill:#C7E3E7;" d="M298.4,234c-0.1,0-0.3,0-0.4-0.1c0,0-2.5-1.7-7.5-0.4c-5.2,1.3-8-0.3-8.1-0.4
		c-0.2-0.1-0.3-0.5-0.2-0.7c0.1-0.2,0.5-0.3,0.7-0.2c0,0,2.6,1.5,7.3,0.3c5.5-1.4,8.2,0.5,8.3,0.6c0.2,0.2,0.3,0.5,0.1,0.7
		C298.7,233.9,298.6,234,298.4,234z"/>
	<path style="fill:#C7E3E7;" d="M299,237.8c-0.1,0-0.3,0-0.4-0.1c0,0-2.5-1.7-7.5-0.4c-5.2,1.3-8-0.3-8.1-0.4
		c-0.2-0.1-0.3-0.5-0.2-0.7c0.1-0.2,0.5-0.3,0.7-0.2c0,0,2.6,1.5,7.3,0.3c5.5-1.4,8.2,0.5,8.3,0.6c0.2,0.2,0.3,0.5,0.1,0.7
		C299.2,237.7,299.1,237.8,299,237.8z"/>
</g>
<g>
</g>
<g>
</g>
<g>
</g>
<g>
</g>
<g>
</g>
<g>
</g>
<g>
</g>
<g>
</g>
<g>
</g>
<g>
</g>
<g>
</g>
<g>
</g>
<g>
</g>
<g>
</g>
<g>
</g>
</svg>
