<?xml version="1.0" encoding="iso-8859-1"?>
<!-- Generator: Adobe Illustrator 19.0.0, SVG Export Plug-In . SVG Version: 6.00 Build 0)  -->
<svg version="1.1" id="Layer_1" xmlns="http://www.w3.org/2000/svg" xmlns:xlink="http://www.w3.org/1999/xlink" x="0px" y="0px"
	 viewBox="0 0 496.158 496.158" style="enable-background:new 0 0 496.158 496.158;" xml:space="preserve">
<path style="fill:#D61E1E;" d="M248.082,0.003C111.07,0.003,0,111.063,0,248.085c0,137.001,111.07,248.07,248.082,248.07
	c137.006,0,248.076-111.069,248.076-248.07C496.158,111.062,385.088,0.003,248.082,0.003z"/>
<path style="fill:#F4EDED;" d="M248.082,39.002C132.609,39.002,39,132.602,39,248.084c0,115.463,93.609,209.072,209.082,209.072
	c115.467,0,209.076-93.609,209.076-209.072C457.158,132.602,363.549,39.002,248.082,39.002z"/>
<g>
	<rect x="83.077" y="259.839" style="fill:#5B5147;" width="114.21" height="40.41"/>
	<rect x="200.649" y="259.839" style="fill:#5B5147;" width="179.16" height="40.41"/>
	<rect x="383.159" y="259.839" style="fill:#5B5147;" width="17.916" height="40.41"/>
	<path style="fill:#5B5147;" d="M396.261,177.9c-1.908-2.081-3.972-3.605-6.073-4.717c-0.295-1.128-0.637-2.237-1.03-3.322
		c0.389-1.806,0.598-3.678,0.598-5.6c0-14.541-11.701-26.329-26.138-26.329c-7.235,0-13.782,2.962-18.515,7.745
		c-6.09,1.388-11.622,4.245-16.212,8.189c-1.851-0.417-3.771-0.646-5.747-0.646c-14.436,0-26.139,11.789-26.139,26.33
		c0,14.137,11.062,25.668,24.942,26.298c2.344,12.119,12.934,21.265,25.65,21.265c0.831,0,1.65-0.045,2.461-0.122
		c23.076,14.917,47.809,16.114,47.809,16.114C392.085,219.977,406.86,189.464,396.261,177.9z"/>
</g>
<path style="fill:#D61E1E;" d="M85.85,60.394c-9.086,7.86-17.596,16.37-25.456,25.456l349.914,349.914
	c9.086-7.861,17.596-16.37,25.456-25.456L85.85,60.394z"/>
<g>
</g>
<g>
</g>
<g>
</g>
<g>
</g>
<g>
</g>
<g>
</g>
<g>
</g>
<g>
</g>
<g>
</g>
<g>
</g>
<g>
</g>
<g>
</g>
<g>
</g>
<g>
</g>
<g>
</g>
</svg>
