<?xml version="1.0" encoding="iso-8859-1"?>
<!-- Generator: Adobe Illustrator 19.0.0, SVG Export Plug-In . SVG Version: 6.00 Build 0)  -->
<svg version="1.1" id="Layer_1" xmlns="http://www.w3.org/2000/svg" xmlns:xlink="http://www.w3.org/1999/xlink" x="0px" y="0px"
	 viewBox="0 0 496.2 496.2" style="enable-background:new 0 0 496.2 496.2;" xml:space="preserve">
<path style="fill:#25B7D3;" d="M496.2,248.1C496.2,111.1,385.1,0,248.1,0S0,111.1,0,248.1s111.1,248.1,248.1,248.1
	S496.2,385.1,496.2,248.1z"/>
<path style="fill:#010101;" d="M139.3,143.5c0-6.6-2.9-11.9-6.5-11.9h-27.4c-3.6,0-6.5,5.3-6.5,11.9c0,6.6,2.9,11.9,6.5,11.9h27.4
	C136.3,155.4,139.3,150.1,139.3,143.5"/>
<g>
	<path style="fill:#202121;" d="M417.3,183.7c0-11.5-9.3-20.9-20.8-20.9H99.8c-11.5,0-20.8,9.3-20.8,20.9v155.1
		c0,11.5,9.3,20.8,20.8,20.8h296.6c11.5,0,20.8-9.3,20.8-20.8V183.7H417.3z"/>
	<path style="fill:#202121;" d="M224.6,168.9c0-14-9.5-25.3-21.1-25.3H100c-11.7,0-21.1,11.4-21.1,25.3v60.2
		c0,14,9.4,25.3,21.1,25.3h103.4c11.6,0,21.1-11.3,21.1-25.3v-60.2H224.6z"/>
</g>
<path style="fill:#010101;" d="M352,260.7c0-57.4-46.5-103.9-103.9-103.9s-103.9,46.5-103.9,103.9s46.5,103.9,103.9,103.9
	S352,318.1,352,260.7"/>
<path style="fill:#231F20;" d="M346.7,260.7c0-54.5-44.1-98.6-98.6-98.6s-98.6,44.1-98.6,98.6c0,54.4,44.2,98.6,98.6,98.6
	S346.7,315.2,346.7,260.7"/>
<path style="fill:#979797;" d="M341.4,260.7c0-51.5-41.8-93.3-93.3-93.3s-93.3,41.8-93.3,93.3s41.8,93.3,93.3,93.3
	C299.6,354,341.4,312.2,341.4,260.7"/>
<path style="fill:#231F20;" d="M337.2,260.7c0-49.2-39.9-89.1-89.1-89.1S159,211.5,159,260.7s39.9,89.1,89.1,89.1
	S337.2,309.9,337.2,260.7"/>
<path style="fill:#010101;" d="M330.6,260.7c0-45.2-36.7-81.9-81.9-81.9s-81.9,36.7-81.9,81.9s36.7,81.9,81.9,81.9
	S330.6,305.9,330.6,260.7"/>
<path style="fill:#231F20;" d="M326.4,260.7c0-42.9-34.8-77.7-77.7-77.7S171,217.8,171,260.7s34.8,77.7,77.7,77.7
	S326.4,303.6,326.4,260.7"/>
<path style="fill:#595A5C;" d="M322.3,260.7c0-40.6-32.9-73.6-73.6-73.6c-40.6,0-73.6,33-73.6,73.6s32.9,73.6,73.6,73.6
	C289.3,334.3,322.3,301.3,322.3,260.7"/>
<path style="fill:#231F20;" d="M319,260.7c0-38.8-31.5-70.3-70.3-70.3s-70.3,31.5-70.3,70.3s31.5,70.3,70.3,70.3
	C287.5,331,319,299.5,319,260.7"/>
<path style="fill:#A5B6B9;" d="M309.6,260.7c0-33.6-27.3-60.9-60.9-60.9s-60.9,27.3-60.9,60.9c0,33.7,27.3,60.9,60.9,60.9
	S309.6,294.4,309.6,260.7"/>
<path style="fill:#FFFFFF;" d="M257.3,240.2c0,16.2-13.1,29.2-29.2,29.2c-16.2,0-29.2-13.1-29.2-29.2S212,211,228.1,211
	C244.2,211,257.3,224.1,257.3,240.2"/>
<g>
	<path style="fill:#66B9CC;" d="M97.7,155.4c-4.2,0-7.6,3.4-7.6,7.6v5.7v0.4l13.8-13.8h-6.2V155.4z"/>
	<path style="fill:#66B9CC;" d="M156.6,163c0-4.2-3.4-7.6-7.6-7.6h-10L95.4,199c0.7,0.2,1.5,0.4,2.3,0.4h36.1l22.8-22.8V163z"/>
</g>
<g>
	<path style="fill:#D7E4F4;" d="M103.8,155.4L90,169.2v5.6v16.9c0,3.4,2.2,6.3,5.3,7.2l43.6-43.6h-35.1V155.4z"/>
	<path style="fill:#D7E4F4;" d="M156.6,191.8v-15.1l-22.8,22.8h15.1C153.2,199.4,156.6,196,156.6,191.8"/>
</g>
<g>
</g>
<g>
</g>
<g>
</g>
<g>
</g>
<g>
</g>
<g>
</g>
<g>
</g>
<g>
</g>
<g>
</g>
<g>
</g>
<g>
</g>
<g>
</g>
<g>
</g>
<g>
</g>
<g>
</g>
</svg>
