<?xml version="1.0" encoding="iso-8859-1"?>
<!-- Generator: Adobe Illustrator 19.0.0, SVG Export Plug-In . SVG Version: 6.00 Build 0)  -->
<svg version="1.1" id="Layer_1" xmlns="http://www.w3.org/2000/svg" xmlns:xlink="http://www.w3.org/1999/xlink" x="0px" y="0px"
	 viewBox="0 0 496.162 496.162" style="enable-background:new 0 0 496.162 496.162;" xml:space="preserve">
<path style="fill:#337180;" d="M248.077,0C111.072,0,0.002,111.062,0.002,248.083c0,137.005,111.07,248.079,248.075,248.079
	c137.013,0,248.083-111.074,248.083-248.079C496.16,111.062,385.09,0,248.077,0z"/>
<rect x="61.638" y="171.465" transform="matrix(-0.8613 0.508 -0.508 -0.8613 516.271 206.136)" style="fill:#525357;" width="336.733" height="4.115"/>
<g>
	<path style="fill:#EAA803;" d="M390.708,84.189c-2.46-2.46-5.732-3.815-9.212-3.815s-6.752,1.355-9.212,3.815L197.087,259.386
		c-2.461,2.459-3.816,5.732-3.816,9.212c0,3.479,1.355,6.751,3.816,9.212c2.46,2.461,5.732,3.816,9.212,3.816
		s6.752-1.355,9.212-3.816l175.197-175.197c2.461-2.46,3.816-5.731,3.816-9.212C394.524,89.922,393.169,86.651,390.708,84.189z
		 M387.799,99.705L212.602,274.901c-1.684,1.683-3.922,2.611-6.303,2.611s-4.619-0.928-6.303-2.611
		c-1.683-1.684-2.611-3.923-2.611-6.303c0-2.381,0.928-4.62,2.611-6.303L375.192,87.098c1.684-1.684,3.922-2.61,6.304-2.61
		c2.381,0,4.619,0.927,6.303,2.61c1.683,1.684,2.611,3.923,2.611,6.303C390.41,95.783,389.482,98.02,387.799,99.705z"/>
	<path style="fill:#EAA803;" d="M388.168,103.264l-0.599-2.676l-17.024,3.806l3.806-17.024l-2.676-0.599l-4.087,18.283
		l-17.213,3.848l-0.679-0.152l-0.072,0.319l-0.318,0.072l0.152,0.678l-3.849,17.215l-17.769,3.972l-0.327-0.072l-0.034,0.153
		l-0.155,0.035l0.074,0.328l-3.972,17.768l-17.767,3.972l-0.329-0.073l-0.035,0.155l-0.153,0.033l0.073,0.326l-3.972,17.77
		l-17.94,4.01l-0.218-0.049l-0.022,0.103l-0.104,0.023l0.049,0.219l-4.01,17.94l-17.215,3.847l-0.677-0.151l-0.071,0.319
		l-0.321,0.072l0.152,0.679l-3.848,17.214l-17.768,3.972l-0.328-0.073l-0.035,0.155l-0.153,0.034l0.073,0.327l-3.972,17.769
		l-17.769,3.972l-0.326-0.073l-0.035,0.153l-0.154,0.035l0.074,0.329l-3.972,17.768l-18.284,4.086l0.598,2.676l17.024-3.806
		l-3.806,17.025l2.677,0.599l4.087-18.284l17.769-3.972l0.326,0.073l0.034-0.154l0.155-0.034l-0.074-0.329l3.971-17.767l17.77-3.972
		l0.326,0.073l0.034-0.154l0.154-0.034l-0.074-0.328l3.972-17.768l17.215-3.848l0.678,0.151l0.071-0.318l0.319-0.071l-0.151-0.679
		l3.848-17.215l17.941-4.009l0.217,0.049l0.022-0.103l0.104-0.023l-0.049-0.221l4.01-17.938l17.771-3.972l0.325,0.073l0.034-0.153
		l0.155-0.035l-0.074-0.33l3.971-17.766l17.77-3.972l0.327,0.073l0.034-0.153l0.154-0.036l-0.073-0.328l3.971-17.767l17.217-3.848
		l0.677,0.151l0.071-0.318l0.32-0.071l-0.152-0.681l3.848-17.214L388.168,103.264z M230.782,255.937l-15.172,3.391l3.392-15.172
		l15.172-3.391L230.782,255.937z M252.965,233.754l-15.172,3.392l3.392-15.172l15.171-3.392L252.965,233.754z M274.981,211.609
		l-15.006,3.354l3.354-15.007l15.006-3.354L274.981,211.609z M297.178,189.58l-15.223,3.403l3.403-15.223l15.223-3.403
		L297.178,189.58z M319.372,167.346l-15.172,3.392l3.391-15.172l15.172-3.391L319.372,167.346z M341.554,145.164l-15.171,3.392
		l3.391-15.173l15.172-3.391L341.554,145.164z M363.571,123.019l-15.006,3.354l3.354-15.007l15.006-3.355L363.571,123.019z"/>
</g>
<g>
	<circle style="fill:#525357;" cx="381.441" cy="93.461" r="8.8"/>
	<rect x="384.641" y="96.891" style="fill:#525357;" width="4.114" height="155.43"/>
</g>
<path style="fill:#D1D3D3;" d="M386.661,217.913c-5.166,0-9.354,4.188-9.354,9.355l4.668,46.223l9.376-2.492l4.665-43.731
	C396.017,222.101,391.826,217.913,386.661,217.913z"/>
<circle style="fill:#FCFCFC;" cx="386.371" cy="226.871" r="4.27"/>
<path style="fill:#EFEFEF;" d="M386.661,233.553c-8.491,0-15.38,6.886-15.38,15.383c0,8.496,6.889,15.385,15.38,15.385
	c8.499,0,15.385-6.89,15.385-15.385C402.046,240.439,395.16,233.553,386.661,233.553z"/>
<path style="fill:#BCC1C1;" d="M386.661,239.247c-5.352,0-9.687,4.336-9.687,9.688c0,5.353,4.335,9.692,9.687,9.692
	c5.352,0,9.691-4.339,9.691-9.692C396.352,243.583,392.012,239.247,386.661,239.247z"/>
<path style="fill:#D1D3D3;" d="M389.693,269.815l-7.717,3.676c0,0,18.707,8.375,10.562,18.15
	c-8.145,9.772-21.351-5.931-21.351-5.931c-0.954,1.422-1.449,3.866-0.954,5.692c1.428,5.22,4.957,9.448,9.731,11.626
	c10.912,4.982,22.999-0.953,25.384-10.202C410.095,274.439,389.693,269.815,389.693,269.815z"/>
<path style="fill:#FFFFFF;" d="M404.401,284.761c-0.535-4.896-3.874-8.387-9.965-11.152c0,0,11.506,10.32,4.387,25.505
	C398.823,299.114,405.483,294.698,404.401,284.761z"/>
<path style="fill:#A3A19D;" d="M184.186,321.244h-50.742c-0.558,0-1.009,0.451-1.009,1.009v7.771c0,0.558,0.452,1.01,1.009,1.01
	h50.742c0.558,0,1.01-0.452,1.01-1.01v-7.771C185.196,321.695,184.744,321.244,184.186,321.244z"/>
<path style="fill:#BDBDBD;" d="M192.871,328.557h-68.112c-0.558,0-1.01,0.452-1.01,1.01v7.771c0,0.558,0.452,1.01,1.01,1.01h68.112
	c0.558,0,1.01-0.452,1.01-1.01v-7.771C193.881,329.009,193.429,328.557,192.871,328.557z"/>
<path style="fill:#A3A19D;" d="M274.8,335.938H83.228c-9.537,0-17.268,7.731-17.268,17.268v8.544
	c0,9.537,7.731,17.269,17.268,17.269H274.8c9.537,0,17.268-7.731,17.268-17.269v-8.544
	C292.068,343.669,284.337,335.938,274.8,335.938z"/>
<path style="fill:#444343;" d="M272.641,340.256H85.927c-7.626,0-13.809,6.181-13.809,13.807v6.831
	c0,7.626,6.183,13.808,13.809,13.808h186.714c7.626,0,13.808-6.182,13.808-13.808v-6.831
	C286.449,346.437,280.268,340.256,272.641,340.256z"/>
<g>
	<circle style="fill:#6B6868;" cx="91.561" cy="357.481" r="14.07"/>
	<circle style="fill:#6B6868;" cx="126.551" cy="357.481" r="14.07"/>
	<circle style="fill:#6B6868;" cx="161.831" cy="357.481" r="14.07"/>
	<circle style="fill:#6B6868;" cx="196.851" cy="357.481" r="14.07"/>
	<circle style="fill:#6B6868;" cx="231.841" cy="357.481" r="14.07"/>
	<circle style="fill:#6B6868;" cx="267.121" cy="357.481" r="14.07"/>
</g>
<g>
	<circle style="fill:#544F4F;" cx="91.561" cy="357.481" r="7.447"/>
	<circle style="fill:#544F4F;" cx="126.551" cy="357.481" r="7.447"/>
	<circle style="fill:#544F4F;" cx="161.831" cy="357.481" r="7.447"/>
	<circle style="fill:#544F4F;" cx="196.841" cy="357.481" r="7.447"/>
	<circle style="fill:#544F4F;" cx="231.841" cy="357.481" r="7.447"/>
	<circle style="fill:#544F4F;" cx="267.131" cy="357.481" r="7.447"/>
</g>
<path style="fill:#CC8D00;" d="M84.075,256.215H59.389c-7.606,0-8.615,1.582-8.615,6.61v12.901c0,7.606,6.167,13.772,13.773,13.772
	h19.527c7.606,0,13.772-6.166,13.772-13.772v-5.739C97.847,262.381,91.681,256.215,84.075,256.215z"/>
<g>
	<path style="fill:#EAA803;" d="M231.727,277.455H68.532c-9.088,0-16.457,7.368-16.457,16.456v14.17
		c0,9.089,7.369,16.457,16.457,16.457h163.195c9.089,0,16.457-7.368,16.457-16.457v-14.17
		C248.184,284.822,240.816,277.455,231.727,277.455z"/>
	<path style="fill:#EAA803;" d="M219.912,256.215h-17.441c-15.613,0-28.271,12.657-28.271,28.271v11.78
		c0,15.614,12.658,28.272,28.271,28.272h17.441c15.614,0,28.271-12.658,28.271-28.272v-11.78
		C248.184,268.872,235.526,256.215,219.912,256.215z"/>
</g>
<g>
</g>
<g>
</g>
<g>
</g>
<g>
</g>
<g>
</g>
<g>
</g>
<g>
</g>
<g>
</g>
<g>
</g>
<g>
</g>
<g>
</g>
<g>
</g>
<g>
</g>
<g>
</g>
<g>
</g>
</svg>
