<?xml version="1.0" encoding="iso-8859-1"?>
<!-- Generator: Adobe Illustrator 19.0.0, SVG Export Plug-In . SVG Version: 6.00 Build 0)  -->
<svg version="1.1" id="Layer_1" xmlns="http://www.w3.org/2000/svg" xmlns:xlink="http://www.w3.org/1999/xlink" x="0px" y="0px"
	 viewBox="0 0 496.162 496.162" style="enable-background:new 0 0 496.162 496.162;" xml:space="preserve">
<path style="fill:#29C183;" d="M248.077,0C111.072,0,0.002,111.062,0.002,248.083c0,137.005,111.07,248.079,248.075,248.079
	c137.013,0,248.083-111.074,248.083-248.079C496.16,111.062,385.09,0,248.077,0z"/>
<path style="fill:#D1D3D3;" d="M242.223,64.888c-21.775,0-39.429,17.652-39.429,39.431l19.667,194.832l39.525-10.5l19.667-184.333
	C281.653,82.54,264,64.888,242.223,64.888z"/>
<circle style="fill:#FCFCFC;" cx="240.991" cy="102.651" r="18"/>
<circle style="fill:#EFEFEF;" cx="242.221" cy="195.651" r="64.842"/>
<circle style="fill:#BCC1C1;" cx="242.221" cy="195.651" r="40.842"/>
<path style="fill:#D1D3D3;" d="M254.986,283.651l-32.525,15.5c0,0,78.855,35.305,44.525,76.5s-90-25-90-25c-4,6-6.1,16.302-4,24
	c6,22,20.878,39.814,41,49c46,21,96.939-4.016,107-43C340.986,303.151,254.986,283.651,254.986,283.651z"/>
<path style="fill:#FFFFFF;" d="M316.986,346.651c-2.249-20.635-16.326-35.346-42-47c0,0,48.5,43.5,18.5,107.5
	C293.486,407.151,321.552,388.537,316.986,346.651z"/>
<g>
</g>
<g>
</g>
<g>
</g>
<g>
</g>
<g>
</g>
<g>
</g>
<g>
</g>
<g>
</g>
<g>
</g>
<g>
</g>
<g>
</g>
<g>
</g>
<g>
</g>
<g>
</g>
<g>
</g>
</svg>
