<?xml version="1.0" encoding="iso-8859-1"?>
<!-- Generator: Adobe Illustrator 19.0.0, SVG Export Plug-In . SVG Version: 6.00 Build 0)  -->
<svg version="1.1" id="Layer_1" xmlns="http://www.w3.org/2000/svg" xmlns:xlink="http://www.w3.org/1999/xlink" x="0px" y="0px"
	 viewBox="0 0 496.162 496.162" style="enable-background:new 0 0 496.162 496.162;" xml:space="preserve">
<path style="fill:#29C183;" d="M248.077,0C111.072,0,0.002,111.062,0.002,248.083c0,137.005,111.07,248.079,248.075,248.079
	c137.013,0,248.083-111.074,248.083-248.079C496.16,111.062,385.09,0,248.077,0z"/>
<path style="fill:#EFE1A8;" d="M409.575,142.883H84.876c-5.862,0-10.618,4.753-10.618,10.618v189.161
	c0,5.865,4.756,10.618,10.618,10.618h324.699c5.863,0,10.618-4.753,10.618-10.618V153.5
	C420.193,147.636,415.438,142.883,409.575,142.883z"/>
<g>
	<path style="fill:#E5C438;" d="M233.508,286.925H84.876c-5.862,0-10.618,4.754-10.618,10.617v45.119
		c0,5.865,4.756,10.618,10.618,10.618h148.632c5.863,0,10.615-4.753,10.615-10.618v-45.119
		C244.123,291.679,239.371,286.925,233.508,286.925z"/>
	<path style="fill:#E5C438;" d="M409.575,286.925H260.943c-5.862,0-10.615,4.754-10.615,10.617v45.119
		c0,5.865,4.753,10.618,10.615,10.618h148.632c5.863,0,10.618-4.753,10.618-10.618v-45.119
		C420.193,291.679,415.438,286.925,409.575,286.925z"/>
	<path style="fill:#E5C438;" d="M233.508,142.883H84.876c-5.862,0-10.618,4.753-10.618,10.618v45.119
		c0,5.863,4.756,10.617,10.618,10.617h148.632c5.863,0,10.615-4.754,10.615-10.617v-45.119
		C244.123,147.636,239.371,142.883,233.508,142.883z"/>
	<path style="fill:#E5C438;" d="M409.575,142.883H260.943c-5.862,0-10.615,4.753-10.615,10.618v45.119
		c0,5.863,4.753,10.617,10.615,10.617h148.632c5.863,0,10.618-4.754,10.618-10.617v-45.119
		C420.193,147.636,415.438,142.883,409.575,142.883z"/>
	<path style="fill:#E5C438;" d="M321.985,214.67H173.352c-5.861,0-10.617,4.753-10.617,10.617v45.12
		c0,5.863,4.756,10.617,10.617,10.617h148.634c5.862,0,10.615-4.754,10.615-10.617v-45.12
		C332.601,219.423,327.848,214.67,321.985,214.67z"/>
	<path style="fill:#E5C438;" d="M349.421,214.67c-5.863,0-10.618,4.753-10.618,10.617v45.12c0,5.863,4.755,10.617,10.618,10.617
		h70.772V214.67L349.421,214.67L349.421,214.67z"/>
	<path style="fill:#E5C438;" d="M146.133,214.67H74.258v66.354h71.875c5.862,0,10.615-4.754,10.615-10.617v-45.12
		C156.748,219.423,151.995,214.67,146.133,214.67z"/>
</g>
<g>
</g>
<g>
</g>
<g>
</g>
<g>
</g>
<g>
</g>
<g>
</g>
<g>
</g>
<g>
</g>
<g>
</g>
<g>
</g>
<g>
</g>
<g>
</g>
<g>
</g>
<g>
</g>
<g>
</g>
</svg>
