<?xml version="1.0" encoding="iso-8859-1"?>
<!-- Generator: Adobe Illustrator 19.0.0, SVG Export Plug-In . SVG Version: 6.00 Build 0)  -->
<svg version="1.1" id="Layer_1" xmlns="http://www.w3.org/2000/svg" xmlns:xlink="http://www.w3.org/1999/xlink" x="0px" y="0px"
	 viewBox="0 0 496.162 496.162" style="enable-background:new 0 0 496.162 496.162;" xml:space="preserve">
<path style="fill:#29C183;" d="M248.077,0C111.072,0,0.002,111.062,0.002,248.083c0,137.005,111.07,248.079,248.075,248.079
	c137.013,0,248.083-111.074,248.083-248.079C496.16,111.062,385.09,0,248.077,0z"/>
<polygon style="fill:#348891;" points="336.604,100.707 196.525,144.479 87.572,115.303 87.572,366.278 200.416,395.455 
	336.604,351.682 408.59,366.278 408.59,115.303 "/>
<polygon style="fill:#A3D5E0;" points="329.595,115.303 329.595,337.64 395.875,351.075 395.875,128.738 "/>
<polygon style="fill:#85C0C9;" points="200.606,155.609 204.195,377.945 329.595,337.64 329.595,115.303 "/>
<polygon style="fill:#A3D5E0;" points="200.606,155.609 100.287,128.738 100.287,351.075 204.195,377.945 "/>
<path style="fill:#FFFFFF;" d="M329.041,144.997l-47.596,12.375v46.357l-43.243,16.048V165.41l-37.636,14.116l-77.642-26.002
	v150.114l79.451,27.338l65.859-25.089v31.494l62.448-23.531l46.168,10.364V156.471L329.041,144.997z M354.834,296.707l-25.753-5.781
	l-38.83,14.631v-31.619l-88.258,33.622l-57.053-19.631V184.115l56.043,18.769l15.202-5.702v54.249l87.276-32.389v-44.646
	l25.793-6.706l25.58,6.139L354.834,296.707L354.834,296.707z"/>
<polygon style="fill:#D0D7D8;" points="329.041,144.997 281.445,157.372 281.445,203.728 238.203,219.776 238.203,165.409 
	200.99,179.367 201.367,202.74 216.186,197.182 216.186,251.431 303.462,219.041 303.462,174.396 329.255,167.69 354.834,173.829 
	354.834,296.707 329.081,290.926 290.252,305.557 290.252,273.938 203.053,307.156 203.431,330.573 268.235,305.886 
	268.235,337.381 330.683,313.85 376.851,324.214 376.851,156.471 "/>
<g>
	<polygon style="fill:#FFFFFF;" points="203.053,307.156 201.994,307.56 144.941,287.928 144.941,184.115 200.984,202.884 
		201.367,202.74 200.99,179.367 200.567,179.525 122.925,153.523 122.925,303.637 202.376,330.975 203.431,330.573 	"/>
	<polygon style="fill:#FFFFFF;" points="329.595,145.13 329.595,167.771 354.834,173.829 354.834,296.707 329.595,291.04 
		329.595,314.26 330.683,313.85 376.851,324.214 376.851,156.471 	"/>
</g>
<g>
</g>
<g>
</g>
<g>
</g>
<g>
</g>
<g>
</g>
<g>
</g>
<g>
</g>
<g>
</g>
<g>
</g>
<g>
</g>
<g>
</g>
<g>
</g>
<g>
</g>
<g>
</g>
<g>
</g>
</svg>
