<?xml version="1.0" encoding="iso-8859-1"?>
<!-- Generator: Adobe Illustrator 19.0.0, SVG Export Plug-In . SVG Version: 6.00 Build 0)  -->
<svg version="1.1" id="Layer_1" xmlns="http://www.w3.org/2000/svg" xmlns:xlink="http://www.w3.org/1999/xlink" x="0px" y="0px"
	 viewBox="0 0 496.162 496.162" style="enable-background:new 0 0 496.162 496.162;" xml:space="preserve">
<path style="fill:#29C183;" d="M248.077,0C111.072,0,0.002,111.062,0.002,248.083c0,137.005,111.07,248.079,248.075,248.079
	c137.013,0,248.083-111.074,248.083-248.079C496.16,111.062,385.09,0,248.077,0z"/>
<path style="fill:#474747;" d="M135.668,247.632c-23.795,0-43.084,19.293-43.084,43.086c0,23.795,19.289,43.088,43.084,43.088
	c23.793,0,43.083-19.293,43.083-43.088C178.751,266.925,159.461,247.632,135.668,247.632z"/>
<circle style="fill:#E5C438;" cx="135.671" cy="290.721" r="23.815"/>
<circle style="fill:#CEAE25;" cx="135.671" cy="290.721" r="11.482"/>
<g>
	<polygon style="fill:#C4C4C4;" points="395.491,187.427 315.649,273.35 131.634,288.478 132.379,295.135 319.9,279.608 
		399.505,194.124 441.027,194.124 441.027,187.427 	"/>
	<path style="fill:#C4C4C4;" d="M229.439,280.514l2.079,4.504c0.249,0.538,2.034,3.397,26.53,43.12
		c6.367,10.325,15.896,16.248,26.143,16.25h0.005c14.859,0,24.971-12.042,28.253-28.733c6.247-31.767,8.24-39.329,8.245-39.502
		l0.115-3.944L229.439,280.514z M305.487,314.924c-3.06,12.943-10.143,22.465-21.292,22.464h-0.003
		c-7.765-0.001-15.122-4.712-20.187-12.924c-16.524-26.797-20.33-31.238-23.847-37.896l73.368-6.67
		C313.188,286.691,310.695,292.888,305.487,314.924z"/>
	<polygon style="fill:#C4C4C4;" points="139.3,210.996 130.79,213.252 131.634,288.478 140.815,287.348 	"/>
</g>
<path style="fill:#E5C438;" d="M439.089,185.902l-28.553-2.378c-3.583,0-6.489,2.905-6.489,6.489s2.906,6.488,6.489,6.488
	l28.553-2.377c3.583,0,6.489-1.841,6.489-4.111C445.578,187.742,442.672,185.902,439.089,185.902z"/>
<rect x="344.691" y="189.002" transform="matrix(-0.6995 0.7147 -0.7147 -0.6995 742.731 108.3435)" style="fill:#C4C4C4;" width="7.788" height="42.676"/>
<path style="fill:#E8D689;" d="M259.511,157.388c-23.674,0-61.815,36.826-61.815,36.826h121
	C318.695,194.214,283.185,157.388,259.511,157.388z"/>
<path style="fill:#EFE5B9;" d="M176.695,165.388c-18,0-47,28-47,28h92C221.695,193.388,194.695,165.388,176.695,165.388z"/>
<path style="fill:#E5C438;" d="M336.563,191.978c-1.209-2.018-3.388-3.254-5.741-3.254l-220.648-0.003
	c-2.891,0-5.461,1.857-6.363,4.607c-0.903,2.746,0.06,5.765,2.394,7.481l112.024,79.059c1.151,0.851,2.543,1.305,3.969,1.305
	c0.256,0,0.511-0.014,0.772-0.046l90.292-7.371c2.178-0.252,4.1-1.56,5.133-3.496l18.333-71.684
	C337.839,196.5,337.773,193.996,336.563,191.978z"/>
<g>
</g>
<g>
</g>
<g>
</g>
<g>
</g>
<g>
</g>
<g>
</g>
<g>
</g>
<g>
</g>
<g>
</g>
<g>
</g>
<g>
</g>
<g>
</g>
<g>
</g>
<g>
</g>
<g>
</g>
</svg>
