<?xml version="1.0" encoding="iso-8859-1"?>
<!-- Generator: Adobe Illustrator 19.0.0, SVG Export Plug-In . SVG Version: 6.00 Build 0)  -->
<svg version="1.1" id="Layer_1" xmlns="http://www.w3.org/2000/svg" xmlns:xlink="http://www.w3.org/1999/xlink" x="0px" y="0px"
	 viewBox="0 0 496.162 496.162" style="enable-background:new 0 0 496.162 496.162;" xml:space="preserve">
<path style="fill:#337180;" d="M248.077,0C111.072,0,0.002,111.062,0.002,248.083c0,137.005,111.07,248.079,248.075,248.079
	c137.013,0,248.083-111.074,248.083-248.079C496.16,111.062,385.09,0,248.077,0z"/>
<path style="fill:#42413A;" d="M149.333,330.552c-0.063-0.457-0.332-0.859-0.73-1.091l-5.757-3.358
	c-0.083-0.049-0.17-0.089-0.261-0.121c-0.472-0.165-1.133-0.235-2.211-0.235c-1.136,0-2.613,0.082-4.043,0.16
	c-1.406,0.077-2.861,0.157-3.941,0.157c-1.004,0-1.281-0.071-1.288-0.072c-32.553-12.121-37.843-43.124-37.893-43.435
	c-0.091-0.569-0.499-1.036-1.051-1.202s-1.149,0-1.537,0.424c-0.7,0.765-17.181,18.947-20.512,36.709
	c-3.257,17.367,8.173,32.518,28.441,37.702c1.772,0.454,3.666,0.683,5.627,0.683c20.261,0,43.757-24.05,44.747-25.074
	C149.245,331.468,149.395,331.008,149.333,330.552z"/>
<polygon style="fill:#CE9905;" points="356.008,295.263 368.48,273.2 250.968,273.2 264.879,293.824 241.375,295.261 
	241.375,346.585 387.186,346.585 387.186,295.263 "/>
<g>
	<rect x="216.911" y="295.261" style="fill:#E8B30A;" width="177.47" height="51.32"/>
	<path style="fill:#E8B30A;" d="M119.019,190.138l-20.092-49.62c-0.24-0.592-0.798-0.971-1.468-0.935
		c-0.639,0.033-1.186,0.467-1.363,1.081l-11,38c-0.044,0.15-0.063,0.307-0.059,0.463l2.301,74.525l-17.071,31.299
		c-0.207,0.379-0.24,0.828-0.093,1.233c0.148,0.405,0.464,0.727,0.865,0.883l25.899,10.072c0.176,0.068,0.36,0.102,0.544,0.102
		c0.249,0,0.497-0.062,0.721-0.185c0.389-0.213,0.663-0.587,0.75-1.021l7.199-35.991l12.95-69.068
		C119.156,190.695,119.127,190.404,119.019,190.138z"/>
</g>
<path style="fill:#42413A;" d="M381.425,122.86c-0.067-1.39-0.8-2.662-1.97-3.415c-9.479-6.115-22.244-9.216-37.94-9.216
	c-25.995,0-51.067,8.397-52.121,8.755c-1.242,0.42-2.226,1.384-2.672,2.619l-36.454,100.725c-0.526,1.452-0.236,3.075,0.762,4.255
	c0.829,0.979,2.037,1.53,3.296,1.53c0.256,0,0.515-0.022,0.773-0.07l17.29-3.143c1.575-0.287,2.866-1.426,3.348-2.957l25.987-82.956
	c5.319-1.592,20.142-5.587,34.991-5.587c9.334,0,16.961,1.561,22.717,4.644l1.705,65.659c0.031,1.259,0.613,2.442,1.591,3.238
	c0.978,0.792,2.239,1.126,3.496,0.896l15.5-2.817c2.13-0.386,3.645-2.294,3.538-4.458L381.425,122.86z"/>
<path style="fill:#3ADDD1;" d="M366.521,133.948l-1.278-0.823c-7.115-4.591-16.716-6.919-28.528-6.919
	c-19.631,0-38.563,6.342-39.361,6.611l-1.387,0.471l-28.523,91.048l100.947-18.355L366.521,133.948z"/>
<path style="fill:#B0F1ED;" d="M305.037,140.581c-11.5,19.5-16.5,51-16.5,51l43.5-58.5
	C320.037,133.581,308.29,135.065,305.037,140.581z"/>
<polygon style="fill:#CE9905;" points="365.451,203.591 271.615,220.652 269.673,226.848 365.603,209.407 "/>
<path style="fill:#E8B30A;" d="M391.969,193.852c-0.351-0.286-0.812-0.396-1.254-0.303l-136.126,28.658l-59.93-35.673
	c-0.139-0.083-0.29-0.142-0.447-0.176l-92.091-20.145c-0.512-0.111-1.046,0.052-1.407,0.432c-0.362,0.38-0.498,0.922-0.36,1.428
	l4.316,15.828c0.164,0.6,0.68,1.036,1.298,1.098l14.157,1.416l72.702,31.361l29.97,54.23c0.228,0.412,0.635,0.693,1.101,0.759
	l25.44,5.613c0.208,0.104,0.438,0.158,0.671,0.158h116.552c0.196,0,0.39-0.039,0.571-0.113l24.462-10.072
	c0.562-0.231,0.929-0.779,0.929-1.387v-71.946C392.523,194.565,392.319,194.137,391.969,193.852z"/>
<circle style="fill:#42413A;" cx="217.871" cy="328.361" r="33.576"/>
<circle style="fill:#8E8D7C;" cx="217.871" cy="328.361" r="18.225"/>
<circle style="fill:#42413A;" cx="391.501" cy="328.361" r="33.576"/>
<circle style="fill:#8E8D7C;" cx="391.501" cy="328.361" r="18.225"/>
<g>
	<circle style="fill:#CC9805;" cx="99.871" cy="178.411" r="6"/>
	<circle style="fill:#CC9805;" cx="193.541" cy="200.751" r="6"/>
	<circle style="fill:#CC9805;" cx="98.201" cy="252.081" r="6"/>
</g>
<g>
</g>
<g>
</g>
<g>
</g>
<g>
</g>
<g>
</g>
<g>
</g>
<g>
</g>
<g>
</g>
<g>
</g>
<g>
</g>
<g>
</g>
<g>
</g>
<g>
</g>
<g>
</g>
<g>
</g>
</svg>
