<?xml version="1.0" encoding="iso-8859-1"?>
<!-- Generator: Adobe Illustrator 19.0.0, SVG Export Plug-In . SVG Version: 6.00 Build 0)  -->
<svg version="1.1" id="Layer_1" xmlns="http://www.w3.org/2000/svg" xmlns:xlink="http://www.w3.org/1999/xlink" x="0px" y="0px"
	 viewBox="0 0 496.162 496.162" style="enable-background:new 0 0 496.162 496.162;" xml:space="preserve">
<path style="fill:#29C183;" d="M248.077,0C111.072,0,0.002,111.062,0.002,248.083c0,137.005,111.07,248.079,248.075,248.079
	c137.013,0,248.083-111.074,248.083-248.079C496.16,111.062,385.09,0,248.077,0z"/>
<path style="fill:#EDC92F;" d="M212.633,71.051c-8.846,0-16.018,7.171-16.018,16.015v313.637c0,8.846,7.172,16.017,16.018,16.017
	c8.845,0,16.016-7.171,16.016-16.017V87.066C228.648,78.222,221.477,71.051,212.633,71.051z"/>
<path style="fill:#EFE4B4;" d="M225.692,368.53l0.039,0.038l1.486-1.499l-12.989-12.87l11.398-11.503l0.016,0.016l1.486-1.5
	l-12.99-12.87l11.418-11.525l0.038,0.038l1.487-1.498l-12.989-12.87l12.868-12.988l-0.006-0.006l0.081-0.08l-12.989-12.869
	l11.419-11.525l0.04,0.038l1.485-1.5L214,250.687l11.36-11.463l0.011,0.012l1.499-1.485l-0.027-0.026l0.027-0.025l-1.499-1.485
	l-0.011,0.012L214,224.763l12.99-12.87l-1.485-1.499l-0.04,0.038l-11.419-11.525l12.989-12.87l-0.081-0.079l0.006-0.006
	l-12.868-12.987l12.989-12.871l-1.487-1.498l-0.038,0.038l-11.418-11.525l12.99-12.87l-1.486-1.499l-0.016,0.016l-11.398-11.503
	l12.989-12.87l-1.486-1.5l-0.039,0.039l-11.419-11.525l12.99-12.87l-1.484-1.499L212.79,93.899l-12.869-12.988l-1.503,1.485
	l12.872,12.99l-12.987,12.869l1.484,1.499l0.039-0.038l11.418,11.525l-12.99,12.87l1.487,1.499l0.016-0.016l11.397,11.503
	l-12.987,12.87l1.483,1.499l0.038-0.039l11.421,11.525l-12.988,12.87l0.076,0.079l-0.004,0.005l12.869,12.989l-12.989,12.871
	l1.485,1.499l0.038-0.038l11.421,11.525l-12.988,12.869l0.105,0.106l-0.105,0.107l12.988,12.869l-11.421,11.526l-0.038-0.038
	l-1.485,1.5l12.989,12.871l-12.869,12.989l0.004,0.004l-0.076,0.079l12.988,12.869l-11.421,11.525l-0.038-0.038l-1.483,1.499
	l12.987,12.87l-11.397,11.503l-0.016-0.016l-1.487,1.499l12.99,12.87l-11.418,11.525l-0.039-0.039l-1.484,1.499l12.987,12.869
	l-12.872,12.99l1.503,1.486l12.869-12.99l12.989,12.871l1.484-1.499l-12.99-12.87L225.692,368.53z M201.323,108.231l11.452-11.347
	l11.42,11.524l-11.452,11.347L201.323,108.231z M201.256,134.109l11.475-11.368l11.396,11.503l-11.473,11.369L201.256,134.109z
	 M201.187,159.942l11.451-11.346l11.421,11.524l-11.452,11.347L201.187,159.942z M201.099,185.84l11.495-11.389l11.462,11.569
	l-11.495,11.388L201.099,185.84z M201.097,211.74l11.452-11.347l11.418,11.525l-11.451,11.348L201.097,211.74z M200.92,237.727
	l11.584-11.476l11.371,11.476l-11.371,11.478L200.92,237.727z M201.097,263.713l11.419-11.525l11.451,11.347l-11.418,11.525
	L201.097,263.713z M201.099,289.614l11.462-11.569l11.495,11.389l-11.462,11.57L201.099,289.614z M201.187,315.512l11.42-11.525
	l11.452,11.347l-11.421,11.524L201.187,315.512z M201.256,341.346l11.398-11.504l11.473,11.368l-11.396,11.503L201.256,341.346z
	 M212.775,378.569l-11.452-11.347l11.42-11.524l11.452,11.346L212.775,378.569z"/>
<g>
	<path style="fill:#EAA803;" d="M213.019,85.123l-0.409-0.125L97.161,124.436h245.953L213.019,85.123z M212.658,87.801
		l112.395,33.966H113.23L212.658,87.801z"/>
	<rect x="96.081" y="127.551" style="fill:#EAA803;" width="40.04" height="27.583"/>
</g>
<path style="fill:#EDC92F;" d="M409.49,119.098H95.853c-4.054,0-7.342,3.286-7.342,7.34c0,4.054,3.288,7.341,7.342,7.341H409.49
	c4.055,0,7.34-3.287,7.34-7.341C416.83,122.384,413.545,119.098,409.49,119.098z"/>
<g>
	<path style="fill:#EAA803;" d="M401.08,120.493l-0.701-0.706l-6.111,6.057l-6.055-6.112l-0.707,0.698l0.012,0.011l-5.451,5.403
		l-6.057-6.112l-0.703,0.698l0.018,0.019l-5.424,5.373l-6.057-6.111l-0.705,0.699l0.008,0.007l-5.41,5.363l-6.058-6.112
		l-0.706,0.698l0.018,0.019l-5.422,5.374l-6.057-6.112l-0.037,0.037l-0.002-0.002l-6.11,6.056l-6.058-6.112l-0.706,0.699
		l0.019,0.017l-5.424,5.374l-6.055-6.11l-0.049,0.05l-0.051-0.05l-6.056,6.11l-5.425-5.374l0.019-0.017l-0.706-0.699l-6.056,6.113
		l-6.11-6.057l-0.002,0.001l-0.039-0.036l-6.056,6.112l-5.425-5.374l0.02-0.019l-0.705-0.698l-6.056,6.112l-5.413-5.364l0.008-0.007
		l-0.705-0.699l-6.055,6.111l-5.424-5.373l0.019-0.019l-0.705-0.698l-6.057,6.112l-5.396-5.347l0.004-0.003l-0.699-0.706
		l-0.012,0.01l-0.01-0.01l-0.698,0.706l0.005,0.003l-5.396,5.347l-6.057-6.112l-0.705,0.698l0.019,0.019l-5.424,5.373l-6.057-6.111
		l-0.704,0.699l0.008,0.007l-5.412,5.363l-6.057-6.112l-0.705,0.698l0.018,0.019l-5.423,5.374l-6.056-6.112l-0.037,0.037
		l-0.002-0.002l-6.111,6.056l-6.057-6.112l-0.705,0.699l0.018,0.017l-5.424,5.374l-6.055-6.11l-0.05,0.05l-0.051-0.05l-6.056,6.11
		l-5.424-5.374l0.018-0.017l-0.705-0.699l-6.057,6.113l-6.111-6.057v0.001l-0.038-0.036l-6.056,6.112l-5.424-5.374l0.018-0.019
		l-0.703-0.698l-6.057,6.112l-5.416-5.364l0.01-0.007l-0.706-0.699l-6.055,6.111l-5.423-5.373l0.018-0.019l-0.705-0.698
		l-6.055,6.112l-6.113-6.057l-0.699,0.706l6.113,6.056l-6.057,6.112l0.703,0.698l6.059-6.112l5.424,5.373l-0.02,0.018l0.705,0.7
		l6.056-6.112l5.414,5.365l-0.008,0.007l0.704,0.699l6.057-6.113l5.423,5.373l-0.019,0.019l0.705,0.699l6.057-6.112l6.111,6.056
		l0.002-0.002l0.039,0.037l6.055-6.112l5.422,5.374l-0.018,0.019l0.707,0.699l6.055-6.111l5.395,5.343l-0.006,0.006l0.699,0.706
		l0.011-0.012l0.013,0.012l0.699-0.706l-0.006-0.006l5.395-5.344l6.057,6.112l0.705-0.699l-0.02-0.019l5.423-5.373l6.056,6.111
		l0.039-0.038l0.003,0.003l6.11-6.056l6.057,6.112l0.703-0.699l-0.018-0.019l5.424-5.373l6.057,6.113l0.706-0.699l-0.01-0.008
		l5.415-5.363l6.057,6.112l0.703-0.7l-0.018-0.018l5.422-5.373l6.057,6.112l0.051-0.051l0.052,0.051l6.057-6.112l5.424,5.373
		l-0.018,0.018l0.704,0.7l6.057-6.112l5.414,5.365l-0.008,0.007l0.703,0.699l6.057-6.113l5.424,5.373l-0.02,0.019l0.705,0.699
		l6.058-6.112l6.11,6.056l0.002-0.002l0.037,0.037l6.057-6.112l5.422,5.374l-0.018,0.019l0.706,0.699l6.057-6.111l5.394,5.343
		l-0.006,0.006l0.699,0.706l0.012-0.012l0.012,0.012l0.699-0.706l-0.006-0.006l5.395-5.344l6.057,6.112l0.704-0.699l-0.019-0.019
		l5.423-5.373l6.056,6.111l0.039-0.038l0.004,0.003l6.109-6.056l6.057,6.112l0.704-0.699l-0.019-0.019l5.425-5.373l6.056,6.113
		l0.705-0.699l-0.008-0.008l5.414-5.363l6.057,6.112l0.703-0.7l-0.018-0.018l5.423-5.373l6.056,6.112l0.706-0.698l-0.012-0.011
		l5.452-5.403l6.055,6.112l0.707-0.698l-6.057-6.112L401.08,120.493z M108.08,131.915l-5.422-5.374l5.338-5.388l5.422,5.373
		L108.08,131.915z M120.236,131.884l-5.414-5.363l5.351-5.399l5.413,5.364L120.236,131.884z M132.413,131.851l-5.425-5.372
		l5.339-5.389l5.425,5.373L132.413,131.851z M144.6,131.85l-5.441-5.393l5.356-5.409l5.444,5.394L144.6,131.85z M156.787,131.809
		l-5.424-5.374l5.339-5.388l5.423,5.374L156.787,131.809z M168.929,131.764l-5.399-5.351l5.399-5.45l5.399,5.45L168.929,131.764z
		 M181.073,131.809l-5.339-5.389l5.424-5.374l5.338,5.388L181.073,131.809z M193.261,131.85l-5.358-5.408l5.442-5.395l5.358,5.41
		L193.261,131.85z M205.446,131.851l-5.339-5.388l5.423-5.374l5.341,5.389L205.446,131.851z M217.623,131.884l-5.348-5.4
		l5.411-5.362l5.351,5.399L217.623,131.884z M229.779,131.915l-5.338-5.388l5.424-5.374l5.338,5.388L229.779,131.915z
		 M242.008,132.001l-5.4-5.452l5.4-5.353l5.404,5.353L242.008,132.001z M254.238,131.915l-5.424-5.374l5.34-5.388l5.422,5.373
		L254.238,131.915z M266.394,131.884l-5.414-5.363l5.352-5.399l5.412,5.364L266.394,131.884z M278.57,131.851l-5.423-5.372
		l5.339-5.389l5.424,5.373L278.57,131.851z M290.758,131.85l-5.443-5.393l5.359-5.409l5.443,5.394L290.758,131.85z M302.945,131.809
		l-5.424-5.374l5.34-5.388l5.424,5.374L302.945,131.809z M315.088,131.764l-5.4-5.351l5.4-5.45l5.4,5.45L315.088,131.764z
		 M327.232,131.809l-5.34-5.389l5.424-5.374l5.338,5.388L327.232,131.809z M339.419,131.85l-5.358-5.408l5.443-5.395l5.359,5.41
		L339.419,131.85z M351.605,131.851l-5.338-5.388l5.422-5.374l5.34,5.389L351.605,131.851z M363.781,131.884l-5.348-5.4l5.412-5.362
		l5.348,5.399L363.781,131.884z M375.938,131.915l-5.339-5.388l5.422-5.374l5.339,5.388L375.938,131.915z M388.111,131.944
		l-5.347-5.396l5.452-5.402l5.346,5.396L388.111,131.944z"/>
	<path style="fill:#EAA803;" d="M409.49,117.097c-5.158,0-9.342,4.182-9.342,9.342c0,5.16,4.184,9.342,9.342,9.342
		c5.162,0,9.343-4.183,9.343-9.342C418.833,121.278,414.652,117.097,409.49,117.097z"/>
</g>
<g>
	<circle style="fill:#525357;" cx="409.491" cy="126.441" r="3"/>
	<rect x="407.491" y="126.441" style="fill:#525357;" width="4" height="100.17"/>
</g>
<g>
	<path style="fill:#EAA803;" d="M283.489,398.035h-141.71c-6.176,0-11.18,5.004-11.18,11.179v11.007h164.066v-11.007
		C294.666,403.039,289.662,398.035,283.489,398.035z"/>
	<circle style="fill:#EAA803;" cx="212.301" cy="128.111" r="6.01"/>
	<circle style="fill:#EAA803;" cx="212.631" cy="86.401" r="4"/>
</g>
<path style="fill:#D1D3D3;" d="M409.154,220.081c-3.767,0-6.822,3.054-6.822,6.822l3.401,31.889l6.837,1.816l3.404-33.705
	C415.975,223.135,412.921,220.081,409.154,220.081z"/>
<circle style="fill:#FCFCFC;" cx="409.371" cy="226.611" r="3.114"/>
<path style="fill:#EFEFEF;" d="M409.154,231.485c-6.197,0-11.219,5.021-11.219,11.217c0,6.196,5.021,11.219,11.219,11.219
	c6.191,0,11.215-5.023,11.215-11.219S415.346,231.485,409.154,231.485z"/>
<circle style="fill:#BCC1C1;" cx="409.151" cy="242.701" r="7.07"/>
<path style="fill:#D1D3D3;" d="M420.437,269.518c0,0-9.63,11.451-15.568,4.325c-5.939-7.127,7.701-13.235,7.701-13.235l-5.627-2.681
	c0,0-14.877,3.372-11.416,16.78c1.739,6.744,10.553,11.071,18.51,7.439c3.481-1.589,6.055-4.672,7.096-8.478
	C421.494,272.337,421.133,270.555,420.437,269.518z"/>
<path style="fill:#FFFFFF;" d="M403.484,260.694c-4.441,2.016-6.876,4.562-7.266,8.132c-0.79,7.246,4.066,10.466,4.066,10.466
	C395.095,268.219,403.484,260.694,403.484,260.694z"/>
<g>
</g>
<g>
</g>
<g>
</g>
<g>
</g>
<g>
</g>
<g>
</g>
<g>
</g>
<g>
</g>
<g>
</g>
<g>
</g>
<g>
</g>
<g>
</g>
<g>
</g>
<g>
</g>
<g>
</g>
</svg>
