<?xml version="1.0" encoding="iso-8859-1"?>
<!-- Generator: Adobe Illustrator 19.0.0, SVG Export Plug-In . SVG Version: 6.00 Build 0)  -->
<svg version="1.1" id="Layer_1" xmlns="http://www.w3.org/2000/svg" xmlns:xlink="http://www.w3.org/1999/xlink" x="0px" y="0px"
	 viewBox="0 0 496.162 496.162" style="enable-background:new 0 0 496.162 496.162;" xml:space="preserve">
<path style="fill:#337180;" d="M248.077,0C111.072,0,0.002,111.062,0.002,248.083c0,137.005,111.07,248.079,248.075,248.079
	c137.013,0,248.083-111.074,248.083-248.079C496.16,111.062,385.09,0,248.077,0z"/>
<path style="fill:#D9E3E4;" d="M322.186,165.072h-97.537v40.58c0,0,4.344,0,32.824,0c4.141,0.17,15.984,0.821,19.826,2.87
	c7.97,4.25,14.367,5.483,21.281,5.765v0.079c0.639,0,1.256-0.016,1.878-0.026c0.627,0.01,1.243,0.026,1.876,0.026v-0.079
	c6.92-0.281,13.313-1.515,21.282-5.765c2.536-1.349,8.526-2.085,13.519-2.488c33.914,1.961,31.896,1.341,31.896,29.468
	c0,0,7.898,3.078,20.082,3.078c12.188,0,20.111-3.078,20.111-3.078C409.074,177.515,401.862,165.072,322.186,165.072z"/>
<path style="fill:#A2D4DE;" d="M407.511,232.931h-37.139c-4.006,0-7.25,3.789-7.25,8.461c0,4.676,3.244,8.462,7.25,8.462h37.139
	c4.004,0,7.25-3.786,7.25-8.462C414.761,236.72,411.515,232.931,407.511,232.931z"/>
<g>
	<path style="fill:#D9E3E4;" d="M301.649,144.037c-20.828,0-37.715,16.885-37.715,37.716s16.887,37.719,37.715,37.719
		c20.835,0,37.717-16.888,37.717-37.719S322.484,144.037,301.649,144.037z"/>
	<path style="fill:#D9E3E4;" d="M301.665,122.851c-9.674,0-17.509,7.84-17.509,17.509v25.615c0,9.671,7.835,17.509,17.509,17.509
		c9.67,0,17.505-7.837,17.505-17.509V140.36C319.17,130.691,311.335,122.851,301.665,122.851z"/>
</g>
<g>
	<path style="fill:#8EC0C8;" d="M295.315,106.36v21.556c0,0,1.902,2.111,6.889,2.111s5.164-2.111,5.164-2.111V106.36
		C307.368,106.36,295.315,106.36,295.315,106.36z"/>
	<path style="fill:#8EC0C8;" d="M307.002,96.924h-10.678c-2.2,0-3.981,1.785-3.981,3.986s1.781,3.982,3.981,3.982h10.678
		c2.201,0,3.982-1.782,3.982-3.982S309.203,96.924,307.002,96.924z"/>
</g>
<path style="fill:#A2D4DE;" d="M327.239,100.682h-51.461c-2.677,0-4.846,2.402-4.846,5.365c0,2.964,2.169,5.368,4.846,5.368h51.461
	c2.678,0,4.846-2.404,4.846-5.368C332.085,103.084,329.917,100.682,327.239,100.682z"/>
<path style="fill:#67B8CB;" d="M228.765,152.126c-7.924,0-14.348,6.499-14.348,14.518v37.218c0,8.017,6.424,14.517,14.348,14.517
	c7.918,0,14.34-6.5,14.34-14.517v-37.218C243.104,158.625,236.683,152.126,228.765,152.126z"/>
<g>
	<path style="fill:#FFFFFF;" d="M370.972,175.526c0,0,10.841,6.553,17.787,10.902c6.324,3.951,13.197,13.197,13.197,13.197
		C396.79,185.853,388.759,177.248,370.972,175.526z"/>
	<path style="fill:#FFFFFF;" d="M307.368,153.166c0,0,12.664,5.457,14.871,19.608c1.18,7.599,8.906-1.098,8.906-1.098
		C325.63,159.385,322.666,153.166,307.368,153.166z"/>
</g>
<path style="fill:#C4E7ED;" d="M390.243,264.431c0,0-13.375,24.132-13.375,33.448c0,7.394,5.987,13.378,13.375,13.38
	c7.395-0.002,13.379-5.986,13.379-13.383C403.622,289.235,390.243,264.431,390.243,264.431z"/>
<path style="fill:#FFFFFF;" d="M395.454,303.386c-2.662,2.942-6.404,4.813-6.404,4.813c8.893-0.185,10.852-2.285,11.752-11.754
	C400.802,296.445,398.379,300.156,395.454,303.386z"/>
<path style="fill:#D3DDDD;" d="M231.262,171.722h-65.111c-8.284,0-15,6.716-15,15v157.667h-57v-96c0-8.284-6.716-15-15-15H0.447
	c-0.285,4.863-0.445,9.76-0.445,14.695c0,5.141,0.176,10.24,0.484,15.305H64.15v96c0,8.284,6.716,15,15,15h87
	c8.284,0,15-6.716,15-15V201.722h50.111c8.284,0,15-6.716,15-15S239.546,171.722,231.262,171.722z"/>
<path style="fill:#67B8CB;" d="M2.097,215.759c-1.377,10.581-2.095,21.368-2.095,32.325c0,11.41,0.787,22.635,2.279,33.637
	c6.961-0.994,12.324-7.034,12.324-14.357v-37.218C14.605,222.756,9.148,216.671,2.097,215.759z"/>
<g>
	<path style="fill:#A2D4DE;" d="M79.15,233.388h-5.809l-22.38,22.382c-2.164,2.163-3.504,4.833-4.029,7.618h17.219v16.58
		c2.594-0.59,5.068-1.886,7.096-3.913l22.904-22.905v-4.762C94.15,240.104,87.435,233.388,79.15,233.388z"/>
	<path style="fill:#A2D4DE;" d="M197.831,201.735c-0.589-2.594-1.886-5.069-3.913-7.096l-22.905-22.904h-4.763
		c-8.283,0-14.999,6.716-14.999,15v5.809l22.382,22.381c2.163,2.164,4.834,3.503,7.619,4.029l-0.001-17.218h16.58V201.735z"/>
	<path style="fill:#A2D4DE;" d="M94.15,344.388v-16.15c-3.23,0.322-6.386,1.728-8.873,4.215L64.15,353.581v5.808
		c0,8.284,6.716,15,15,15h4.763l21.649-21.65c2.353-2.353,3.723-5.304,4.14-8.35H94.15V344.388z"/>
	<path style="fill:#A2D4DE;" d="M159.246,332.453c-2.287-2.287-5.141-3.644-8.096-4.102v16.037h-16.328
		c0.416,3.047,1.786,5.998,4.139,8.35l21.65,21.65h5.539c8.284,0,15-6.716,15-15v-5.031L159.246,332.453z"/>
</g>
<g>
</g>
<g>
</g>
<g>
</g>
<g>
</g>
<g>
</g>
<g>
</g>
<g>
</g>
<g>
</g>
<g>
</g>
<g>
</g>
<g>
</g>
<g>
</g>
<g>
</g>
<g>
</g>
<g>
</g>
</svg>
