<?xml version="1.0" encoding="iso-8859-1"?>
<!-- Generator: Adobe Illustrator 19.0.0, SVG Export Plug-In . SVG Version: 6.00 Build 0)  -->
<svg version="1.1" id="Layer_1" xmlns="http://www.w3.org/2000/svg" xmlns:xlink="http://www.w3.org/1999/xlink" x="0px" y="0px"
	 viewBox="0 0 496.162 496.162" style="enable-background:new 0 0 496.162 496.162;" xml:space="preserve">
<path style="fill:#EDC92F;" d="M248.077,0C111.072,0,0.002,111.062,0.002,248.083c0,137.005,111.07,248.079,248.075,248.079
	c137.013,0,248.083-111.074,248.083-248.079C496.16,111.062,385.09,0,248.077,0z"/>
<path style="fill:#A46434;" d="M349.625,195.135l-23.646-17.313c-1.581-1.157-4.514-0.07-7.67,2.526l-45.216-40.326l-0.098,0.128
	c0,0-37.824-41.045-45.953-46.99c-56.827-41.612-106.377-5.654-120.619,12.562c0,0,57.482-3.141,71.997,21.507
	c17.828,30.268,1.557,46.525,1.557,46.525l-144.511,202.2c13.178,21.864,29.635,41.522,48.687,58.31
	c57.9-100.292,128.279-221.76,134.031-229.615c20.221-27.614,77.28,8.726,77.28,8.726c-0.498,2.34-3.749,8.9-2.63,9.722
	l23.645,17.313c2.521,1.843,8.512-2.063,13.368-8.703l15.539-21.218C350.24,203.86,352.146,196.977,349.625,195.135z"/>
<path style="fill:#935328;" d="M248.401,157.192c-0.09-0.044-0.182-0.087-0.272-0.132c-10.111-2.691-16.874,1.084-27.047-1.365
	L56.739,405.968c8.379,10.141,17.548,19.604,27.414,28.296c56.682-98.183,125.313-216.641,133.572-228.952
	C216.71,203.58,238.789,162.451,248.401,157.192z"/>
<path style="fill:#7B7C7C;" d="M349.625,195.135l-23.646-17.313c-1.581-1.157-4.514-0.07-7.67,2.526l-45.216-40.326l-0.098,0.128
	c0,0-37.824-41.045-45.953-46.99c-56.827-41.612-106.377-5.654-120.619,12.562c0,0,57.482-3.141,71.997,21.507
	c17.828,30.268,1.557,46.525,1.557,46.525l38.207,30.895c20.221-27.614,77.28,8.726,77.28,8.726c-0.498,2.34-3.749,8.9-2.63,9.722
	l23.645,17.313c2.521,1.843,8.512-2.063,13.368-8.703l15.539-21.218C350.24,203.86,352.146,196.977,349.625,195.135z"/>
<path style="fill:#626463;" d="M349.625,195.135l-23.646-17.313c-1.581-1.157-4.514-0.07-7.67,2.526l-45.216-40.326l-0.098,0.128
	c0,0-13.872-15.053-26.619-28.247l-47.547,77.094l19.355,15.651c20.221-27.614,77.28,8.726,77.28,8.726
	c-0.498,2.34-3.749,8.9-2.63,9.722l23.645,17.313c2.521,1.843,8.512-2.063,13.368-8.703l15.539-21.218
	C350.24,203.86,352.146,196.977,349.625,195.135z"/>
<path style="fill:#868786;" d="M344.369,317.77c-4.336,0-7.852,1.421-7.852,3.173s3.515,85.282,7.852,85.282
	s7.852-83.53,7.852-85.282S348.706,317.77,344.369,317.77z"/>
<path style="fill:#6A6D6C;" d="M344.369,317.77c-4.336,0-7.852,1.421-7.852,3.173c0,0.282,0.092,2.698,0.264,6.552l14.949,5.454
	c0.257-5.512,0.491-11.656,0.491-12.006C352.221,319.191,348.706,317.77,344.369,317.77z"/>
<ellipse style="fill:#868786;" cx="344.371" cy="312.081" rx="32.759" ry="13.242"/>
<ellipse style="fill:#666867;" cx="344.371" cy="312.081" rx="13.266" ry="5.362"/>
<g>
</g>
<g>
</g>
<g>
</g>
<g>
</g>
<g>
</g>
<g>
</g>
<g>
</g>
<g>
</g>
<g>
</g>
<g>
</g>
<g>
</g>
<g>
</g>
<g>
</g>
<g>
</g>
<g>
</g>
</svg>
