<?xml version="1.0" encoding="iso-8859-1"?>
<!-- Generator: Adobe Illustrator 19.0.0, SVG Export Plug-In . SVG Version: 6.00 Build 0)  -->
<svg version="1.1" id="Layer_1" xmlns="http://www.w3.org/2000/svg" xmlns:xlink="http://www.w3.org/1999/xlink" x="0px" y="0px"
	 viewBox="0 0 496.162 496.162" style="enable-background:new 0 0 496.162 496.162;" xml:space="preserve">
<path style="fill:#337180;" d="M248.077,0C111.072,0,0.002,111.062,0.002,248.083c0,137.005,111.07,248.079,248.075,248.079
	c137.013,0,248.083-111.074,248.083-248.079C496.16,111.062,385.09,0,248.077,0z"/>
<path style="fill:#C0C8C9;" d="M429.801,141.246c0.034-0.387-0.088-0.772-0.339-1.069l-21.385-25.272
	c-0.44-0.52-1.182-0.665-1.782-0.353L152.602,245.771c-0.492,0.255-0.798,0.767-0.788,1.32l1.944,109.836
	c0.011,0.567,0.348,1.077,0.866,1.307l8.748,3.887l13.228,7.659l0.364-13.973l15.31-1.093l1.457-13.73l14.945,0.364l0.973-13.122
	l16.158,1.702l0.487-14.702l14.58,0.122l-0.243-15.066l15.916,3.038l0.121-14.337l16.039,1.094l1.093-14.094l13.122,1.458v-14.824
	l17.74,1.337v-14.337l14.336-0.121l0.244-13.001l16.037-0.243l0.121-12.879l14.459-0.243l1.336-14.094l16.281,1.094l-0.729-15.553
	l15.553,1.094l0.364-13.243l16.523,1.458l-0.121-12.879l14.701-0.364l1.093-14.702l15.066,0.365L429.801,141.246z"/>
<path style="fill:#D7DBDB;" d="M408.077,114.904c-0.44-0.52-1.182-0.665-1.782-0.353l-253.693,131.22
	c-0.492,0.255-0.798,0.767-0.788,1.32l13.729,53.556L417.41,125.933L408.077,114.904z"/>
<path style="fill:#DD891B;" d="M172.447,295.057l-17.998-49.564c-0.167-0.502-0.596-0.875-1.117-0.972
	c-0.072-0.014-0.74-0.132-1.795-0.132c-3.201,0-10.899,2.254-15.168,12.824c-3.857,9.547-9.803,10.973-13.004,10.973
	c-1.098,0-1.799-0.172-1.799-0.172c-0.066-0.018-0.135-0.031-0.205-0.039c-1.625-0.188-3.262-0.283-4.861-0.283
	c-20.704,0-32.596,15.362-34.982,18.776c-8.463,0.44-13.731,2.74-15.661,6.84c-2.729,5.802,2.443,12.675,2.665,12.965
	c0.241,0.316,0.602,0.52,0.997,0.563c7.192,0.799,15.212,4.382,17.401,5.41c3.822,13.352,17.699,34.966,20.803,39.704
	c-3.675,5.197-6.146,19.518-6.433,21.237c-0.03,0.181-0.025,0.366,0.013,0.545c1.428,6.662,5.096,8.062,7.922,8.062
	c4.814,0,9.787-4.161,9.996-4.338c0.15-0.127,0.274-0.284,0.363-0.46c1.335-2.673,6.559-5.167,8.722-6.012
	c19.774-1.077,27.79-12.772,28.124-13.271c0.085-0.128,0.149-0.269,0.19-0.417l15.849-61.385
	C172.547,295.629,172.54,295.332,172.447,295.057z M141.085,340.708l-17.747,5.916c-0.229,0.076-0.461,0.112-0.691,0.112
	c-0.801,0-1.561-0.44-1.943-1.186l-22.349-43.381c-0.543-1.052-0.149-2.344,0.886-2.916l19.642-8.661
	c0.578-0.319,1.275-0.361,1.888-0.108c0.614,0.252,1.081,0.769,1.268,1.404l20.453,46.127
	C142.823,339.145,142.202,340.336,141.085,340.708z"/>
<path style="fill:#EFA645;" d="M172.447,295.057l-17.998-49.564c-0.167-0.502-0.596-0.875-1.117-0.972
	c-0.072-0.014-0.74-0.132-1.795-0.132c-3.201,0-10.899,2.254-15.168,12.824c-3.857,9.547-9.803,10.973-13.004,10.973
	c-1.098,0-1.799-0.172-1.799-0.172c-0.066-0.018-0.135-0.031-0.205-0.039c-1.625-0.188-3.262-0.283-4.861-0.283
	c-20.704,0-32.596,15.362-34.982,18.776c-8.463,0.44-13.731,2.74-15.661,6.84c-2.729,5.802,2.443,12.675,2.665,12.965
	c0.241,0.316,0.602,0.52,0.997,0.563c7.192,0.799,15.212,4.382,17.401,5.41c2.705,9.451,10.445,23.035,15.84,31.851l12.67-8.781
	L98.355,302.17c-0.543-1.052-0.149-2.344,0.886-2.916l19.642-8.661c0.578-0.319,1.275-0.361,1.888-0.108
	c0.614,0.252,1.081,0.769,1.268,1.404l13.177,29.716l37.272-25.831C172.529,295.534,172.525,295.289,172.447,295.057z"/>
<circle style="fill:#B76B11;" cx="161.201" cy="303.051" r="4.333"/>
<circle style="fill:#CE8320;" cx="151.201" cy="258.721" r="4.333"/>
<circle style="fill:#B76B11;" cx="151.201" cy="347.391" r="4.333"/>
<g>
</g>
<g>
</g>
<g>
</g>
<g>
</g>
<g>
</g>
<g>
</g>
<g>
</g>
<g>
</g>
<g>
</g>
<g>
</g>
<g>
</g>
<g>
</g>
<g>
</g>
<g>
</g>
<g>
</g>
</svg>
