<?xml version="1.0" encoding="iso-8859-1"?>
<!-- Generator: Adobe Illustrator 19.0.0, SVG Export Plug-In . SVG Version: 6.00 Build 0)  -->
<svg version="1.1" id="Layer_1" xmlns="http://www.w3.org/2000/svg" xmlns:xlink="http://www.w3.org/1999/xlink" x="0px" y="0px"
	 viewBox="0 0 496.162 496.162" style="enable-background:new 0 0 496.162 496.162;" xml:space="preserve">
<path style="fill:#EDC92F;" d="M248.077,0C111.072,0,0.002,111.062,0.002,248.083c0,137.005,111.07,248.079,248.075,248.079
	c137.013,0,248.083-111.074,248.083-248.079C496.16,111.062,385.09,0,248.077,0z"/>
<rect x="202.701" y="96.701" style="fill:#839193;" width="89.83" height="25"/>
<rect x="202.701" y="96.701" style="fill:#BBC3C4;" width="89.83" height="9.569"/>
<rect x="202.701" y="106.271" style="fill:#A0B2B5;" width="89.83" height="10.188"/>
<rect x="202.701" y="154.121" style="fill:#839193;" width="89.83" height="25"/>
<rect x="202.701" y="154.121" style="fill:#BBC3C4;" width="89.83" height="9.57"/>
<rect x="202.701" y="163.691" style="fill:#A0B2B5;" width="89.83" height="10.187"/>
<rect x="202.701" y="211.541" style="fill:#839193;" width="89.83" height="25"/>
<rect x="202.701" y="211.541" style="fill:#BBC3C4;" width="89.83" height="9.569"/>
<rect x="202.701" y="221.111" style="fill:#A0B2B5;" width="89.83" height="10.187"/>
<rect x="202.701" y="268.951" style="fill:#839193;" width="89.83" height="25"/>
<rect x="202.701" y="268.951" style="fill:#BBC3C4;" width="89.83" height="9.569"/>
<rect x="202.701" y="278.521" style="fill:#A0B2B5;" width="89.83" height="10.188"/>
<rect x="202.701" y="326.371" style="fill:#839193;" width="89.83" height="25"/>
<rect x="202.701" y="326.371" style="fill:#BBC3C4;" width="89.83" height="9.568"/>
<rect x="202.701" y="335.941" style="fill:#A0B2B5;" width="89.83" height="10.187"/>
<rect x="202.701" y="383.791" style="fill:#839193;" width="89.83" height="25"/>
<rect x="202.701" y="383.791" style="fill:#BBC3C4;" width="89.83" height="9.568"/>
<rect x="202.701" y="393.361" style="fill:#A0B2B5;" width="89.83" height="10.187"/>
<g>
	<rect x="188.811" y="59.661" style="fill:#8B9C9E;" width="16" height="383.4"/>
	<rect x="291.351" y="59.661" style="fill:#8B9C9E;" width="16" height="383.4"/>
</g>
<g>
	<path style="fill:#C83D54;" d="M203.333,424.305h-12.835c-2.211,0-4.002,1.791-4.002,4.001v12.834c0,2.209,1.791,4.001,4.002,4.001
		h12.835c2.211,0,4-1.792,4-4.001v-12.834C207.333,426.096,205.544,424.305,203.333,424.305z"/>
	<path style="fill:#C83D54;" d="M305.433,424.305h-12.835c-2.209,0-4,1.791-4,4.001v12.834c0,2.209,1.791,4.001,4,4.001h12.835
		c2.21,0,4.001-1.792,4.001-4.001v-12.834C309.434,426.096,307.643,424.305,305.433,424.305z"/>
</g>
<path style="fill:#DD5271;" d="M297.003,51.02h-97.844c-9.634,0-17.446,6.153-17.446,13.743c0,7.591,7.813,13.742,17.446,13.742
	h97.844c9.634,0,17.446-6.151,17.446-13.742C314.449,57.173,306.637,51.02,297.003,51.02z"/>
<path style="fill:#C83D54;" d="M181.713,64.763c0,7.591,7.813,13.742,17.446,13.742h97.844c9.634,0,17.446-6.151,17.446-13.742
	H181.713z"/>
<g>
</g>
<g>
</g>
<g>
</g>
<g>
</g>
<g>
</g>
<g>
</g>
<g>
</g>
<g>
</g>
<g>
</g>
<g>
</g>
<g>
</g>
<g>
</g>
<g>
</g>
<g>
</g>
<g>
</g>
</svg>
