<?xml version="1.0" encoding="iso-8859-1"?>
<!-- Generator: Adobe Illustrator 19.0.0, SVG Export Plug-In . SVG Version: 6.00 Build 0)  -->
<svg version="1.1" id="Layer_1" xmlns="http://www.w3.org/2000/svg" xmlns:xlink="http://www.w3.org/1999/xlink" x="0px" y="0px"
	 viewBox="0 0 496.162 496.162" style="enable-background:new 0 0 496.162 496.162;" xml:space="preserve">
<path style="fill:#337180;" d="M248.077,0C111.072,0,0.002,111.062,0.002,248.083c0,137.005,111.07,248.079,248.075,248.079
	c137.013,0,248.083-111.074,248.083-248.079C496.16,111.062,385.09,0,248.077,0z"/>
<g>
	<path style="fill:#F5D8A4;" d="M118.298,188.809l23.392,213.283c0,9.893,8.029,17.925,17.926,17.925h169.251
		c9.897,0,17.917-8.032,17.917-17.925l23.4-213.283C370.184,178.912,118.298,178.912,118.298,188.809z"/>
	<path style="fill:#C1C1C1;" d="M244.148,76.146c-130.334,0-125.851,112.663-125.851,112.663l10.474,7.059
		c0,0,3.275-100.482,115.385-100.482c112.108,0,115.554,100.482,115.554,100.482l10.474-7.059
		C370.184,188.809,374.482,76.146,244.148,76.146z"/>
	<path style="fill:#CECBCB;" d="M244.148,76.146c-130.334,0-125.851,112.663-125.851,112.663l10.474,7.059
		c0,0,3.275-100.482,115.385-100.482L244.148,76.146z"/>
</g>
<g>
	<path style="fill:#E9CA92;" d="M243.695,180.188c-46.531,0-92.601,2.553-113.678,5.263l-11.72,3.357l23.392,213.283
		c0,9.893,8.029,17.925,17.926,17.925h84.533L243.695,180.188z"/>
	<path style="fill:#E9CA92;" d="M130.063,177.328h-10.827c-1.669,0-3.015,2.337-3.015,5.213v8.905c0,2.883,1.346,5.213,3.015,5.213
		h10.827c1.669,0,3.015-2.33,3.015-5.213v-8.905C133.078,179.665,131.732,177.328,130.063,177.328z"/>
</g>
<g>
	<path style="fill:#F5D8A4;" d="M369.43,177.328h-10.827c-1.661,0-3.015,2.337-3.015,5.213v8.905c0,2.883,1.354,5.213,3.015,5.213
		h10.827c1.668,0,3.021-2.33,3.021-5.213v-8.905C372.451,179.665,371.098,177.328,369.43,177.328z"/>
	<path style="fill:#DD5271;" d="M137.615,184.729c0,0,36.51,96.564,78.204,34c0,0,15.726-19.032,32.251,0.911
		c16.525,19.947,12.604,44.17,15.732,56.208c2.361,9.074,21.678,29.521,27.93-10.881c7.867-50.768,23.992-46.685,32.65-40.798
		c8.651,5.894,19.201,2.38,22.809-14.503c3.613-16.898,4.629-25.057,4.629-25.057S239.096,174.748,137.615,184.729z"/>
	<path style="fill:#C83D54;" d="M137.615,184.729c0,0,36.51,96.564,78.204,34c0,0,13.265-16.064,28.229-3.226l0.668-35.315
		C215.111,180.357,168.781,181.657,137.615,184.729z"/>
</g>
<path style="fill:#E79E2D;" d="M216.595,280.477L73.121,423.948c5.727,5.696,11.73,11.112,17.988,16.231l70.252-84.348
	c8.379,2.841,17.372,1.386,24.42-5.667l41.592-41.593C238.107,297.838,227.328,291.209,216.595,280.477z"/>
<path style="fill:#D68A28;" d="M188.502,269.702l-41.593,41.595c-7.048,7.047-8.509,16.034-5.667,24.42l-84.701,70.029
	c5.225,6.34,10.762,12.413,16.58,18.202l143.474-143.471C205.864,269.745,199.236,258.967,188.502,269.702z"/>
<path style="fill:#CDCCCB;" d="M218.034,279.042c-10.733-10.736-18.798-20.075-29.532-9.34l-41.593,41.595
	c-5.066,5.064,33.802,43.938,38.872,38.867l41.592-41.593C238.107,297.838,228.766,289.772,218.034,279.042z"/>
<path style="fill:#AAAAAA;" d="M188.502,269.702l-41.593,41.595c-2.535,2.531,5.919,13.515,15.634,23.233l55.491-55.487
	C207.301,268.306,199.236,258.967,188.502,269.702z"/>
<path style="fill:#B2B2B2;" d="M149.516,348.193c-7.115-7.116-9.643-16.129-9.643-16.129l-22.258,22.711
	c-2.738,2.736,22.053,27.316,24.793,24.577l22.466-22.466C164.874,356.886,156.637,355.313,149.516,348.193z"/>
<path style="fill:#8D9091;" d="M139.873,332.064l-22.258,22.711c-1.369,1.37,3.791,8.054,10.236,14.498l21.281-21.46
	C142.323,340.767,139.873,332.064,139.873,332.064z"/>
<path style="fill:#3D4040;" d="M189.213,259.215l-25.061,34.835c-5.067,5.067,33.804,43.938,38.871,38.873l11.952-8.6
	L189.213,259.215z"/>
<path style="fill:#343433;" d="M189.213,259.215l-25.061,34.835c-2.492,2.493,5.639,13.16,15.156,22.758l49.771-48.798
	C215.966,254.895,189.213,259.215,189.213,259.215z"/>
<path style="fill:#C83D54;" d="M198.957,245.67l-9.744,13.545l7.578,34.173l18.185,30.936l36.433-26.211
	C262.133,287.384,209.69,234.939,198.957,245.67z"/>
<path style="fill:#DD5271;" d="M233.236,263.851c0,0.002-34.101,33.526-34.101,33.526l15.84,26.947l36.433-26.211
	C256.769,292.749,246.345,276.961,233.236,263.851z"/>
<path style="fill:#1D1E1E;" d="M192.206,272.712l-19.35,25.226c-0.675,0.882-0.511,2.143,0.372,2.818
	c0.362,0.278,0.795,0.414,1.223,0.414c0.602,0,1.198-0.271,1.592-0.787l17.299-22.552L192.206,272.712z"/>
<g>
	<path style="fill:#2E2F2F;" d="M208.473,313.261l-11.063,8.486c-0.879,0.676-1.044,1.938-0.369,2.818
		c0.395,0.514,0.991,0.785,1.594,0.785c0.428,0,0.859-0.135,1.225-0.414l10.666-8.182L208.473,313.261z"/>
	<path style="fill:#2E2F2F;" d="M201.896,302.075l-12.76,11.643c-0.82,0.748-0.88,2.019-0.129,2.838
		c0.396,0.435,0.938,0.655,1.483,0.655c0.481,0,0.97-0.172,1.354-0.524l12.134-11.071L201.896,302.075z"/>
</g>
<path style="fill:#1D1E1E;" d="M196.791,293.388l-1.005-4.53l-15.155,16.61c-0.748,0.82-0.689,2.092,0.131,2.839
	c0.385,0.352,0.871,0.524,1.354,0.524c0.547,0,1.087-0.22,1.484-0.655l13.31-14.587L196.791,293.388z"/>
<g>
	<path style="fill:#A82F49;" d="M210.396,252.299c-0.881-0.675-2.145-0.51-2.816,0.371l-15.374,20.043l1.136,5.119l17.424-22.717
		C211.442,254.236,211.277,252.974,210.396,252.299z"/>
	<path style="fill:#A82F49;" d="M245.492,287.395c-0.673-0.881-1.935-1.045-2.817-0.37l-34.202,26.235l2.053,3.493l34.6-26.541
		C246.002,289.539,246.168,288.277,245.492,287.395z"/>
	<path style="fill:#A82F49;" d="M235.803,273.856c-0.746-0.819-2.018-0.88-2.837-0.13l-31.069,28.349l2.082,3.541l31.695-28.92
		C236.494,275.945,236.552,274.676,235.803,273.856z"/>
	<path style="fill:#A82F49;" d="M223.46,261.51c-0.817-0.747-2.093-0.687-2.839,0.13l-24.835,27.218l1.005,4.53l0.118,0.201
		l26.68-29.241C224.338,263.53,224.279,262.258,223.46,261.51z"/>
</g>
<path style="fill:#DD5271;" d="M253.22,308.815c0,0-10.309,18.599-10.309,25.779c0,5.698,4.613,10.311,10.309,10.313
	c5.699-0.002,10.313-4.615,10.313-10.315C263.532,327.932,253.22,308.815,253.22,308.815z"/>
<g>
</g>
<g>
</g>
<g>
</g>
<g>
</g>
<g>
</g>
<g>
</g>
<g>
</g>
<g>
</g>
<g>
</g>
<g>
</g>
<g>
</g>
<g>
</g>
<g>
</g>
<g>
</g>
<g>
</g>
</svg>
